# xmcd CD database file
#
# Track frame offsets:
#	150
#	14145
#	27195
#	43836
#	57224
#	68980
#	88809
#	102268
#	123585
#	135076
#	147191
#
# Disc length: 2135 seconds
#
# Revision: 0
# Processed by: cddbd v1.5.1PL0 Copyright (c) Steve Scherf et al.
# Submitted via: CDex 1.51
#
DISCID=9a08550b
DTITLE=Teri Thornton - Somewhere In The Night
DYEAR=1963
DGENRE=Jazz
TTITLE0=Somewhere In The Night
TTITLE1=I've Got Your Number
TTITLE2=There's A Boat Dat's Leavin' Soon For New York
TTITLE3=Lonely One
TTITLE4=You've Got To Have Heart
TTITLE5=Stormy Weather
TTITLE6=I Believe In You
TTITLE7=Mood Indigo
TTITLE8=Quizas
TTITLE9=I Got The World On A String
TTITLE10=Clap Yo' Hands
EXTD=YEAR: 1963
EXTT0=
EXTT1=
EXTT2=
EXTT3=
EXTT4=
EXTT5=
EXTT6=
EXTT7=
EXTT8=
EXTT9=
EXTT10=
PLAYORDER=
